<?xml version="1.0" encoding="UTF-8" standalone="no"?>
<svg
   width="1816"
   height="923"
   xml:space="preserve"
   overflow="hidden"
   version="1.1"
   id="svg21"
   sodipodi:docname="ai_prjs.svg"
   inkscape:version="1.4 (86a8ad7, 2024-10-11)"
   xmlns:inkscape="http://www.inkscape.org/namespaces/inkscape"
   xmlns:sodipodi="http://sodipodi.sourceforge.net/DTD/sodipodi-0.dtd"
   xmlns="http://www.w3.org/2000/svg"
   xmlns:svg="http://www.w3.org/2000/svg"><sodipodi:namedview
     id="namedview21"
     pagecolor="#505050"
     bordercolor="#eeeeee"
     borderopacity="1"
     inkscape:showpageshadow="0"
     inkscape:pageopacity="0"
     inkscape:pagecheckerboard="0"
     inkscape:deskcolor="#505050"
     inkscape:zoom="0.87540628"
     inkscape:cx="907.57859"
     inkscape:cy="461.5"
     inkscape:window-width="1920"
     inkscape:window-height="1010"
     inkscape:window-x="-6"
     inkscape:window-y="-6"
     inkscape:window-maximized="1"
     inkscape:current-layer="g21" /><defs
     id="defs1"><clipPath
       id="clip0"><rect
         x="2206"
         y="494"
         width="1816"
         height="923"
         id="rect1" /></clipPath></defs><g
     clip-path="url(#clip0)"
     transform="translate(-2206 -494)"
     id="g21"><path
       d="M2206 517.49C2206 504.517 2216.52 494 2229.49 494L3998.51 494C4011.48 494 4022 504.517 4022 517.49L4022 1393.51C4022 1406.48 4011.48 1417 3998.51 1417L2229.49 1417C2216.52 1417 2206 1406.48 2206 1393.51Z"
       fill="#3494BA"
       fill-rule="evenodd"
       fill-opacity="0.231373"
       id="path1"
       inkscape:label="b0_path1" /><text
       fill="#FFFFFF"
       font-family="Source Han Sans CN Regular,Source Han Sans CN Regular_MSFontService,sans-serif"
       font-weight="700"
       font-size="73"
       transform="matrix(1 0 0 1 2714.07 598)"
       id="text1">AI</text><text
       fill="#FFFFFF"
       font-family="Source Han Sans CN Regular,Source Han Sans CN Regular_MSFontService,sans-serif"
       font-weight="700"
       font-size="73"
       transform="matrix(1 0 0 1 2780.53 598)"
       id="text2">赋能领域开源项目一览</text><rect
       x="2569"
       y="1033"
       width="328"
       height="121"
       fill="#00B050"
       id="rect2"
       inkscape:label="f0_1_rect2" /><text
       fill="#FFFF00"
       font-family="Source Han Sans CN Regular,Source Han Sans CN Regular_MSFontService,sans-serif"
       font-weight="400"
       font-size="43"
       transform="matrix(1 0 0 1 2621.37 1089)"
       id="text3">annotated</text><text
       fill="#FFFF00"
       font-family="Source Han Sans CN Regular,Source Han Sans CN Regular_MSFontService,sans-serif"
       font-weight="400"
       font-size="43"
       transform="matrix(1 0 0 1 2829.92 1089)"
       id="text4">-</text><text
       fill="#FFFF00"
       font-family="Source Han Sans CN Regular,Source Han Sans CN Regular_MSFontService,sans-serif"
       font-weight="400"
       font-size="43"
       transform="matrix(1 0 0 1 2608.77 1141)"
       id="text5">Transformer</text><rect
       x="3629"
       y="867"
       width="318"
       height="121"
       fill="#00B050"
       id="rect5" /><text
       fill="#FFFF00"
       font-family="Source Han Sans CN Regular,Source Han Sans CN Regular_MSFontService,sans-serif"
       font-weight="400"
       font-size="43"
       transform="matrix(1 0 0 1 3675.94 949)"
       id="text6">BEVFormer</text><rect
       x="2569"
       y="867"
       width="328"
       height="121"
       fill="#00B050"
       id="rect6"
       inkscape:label="f0_1_rect6" /><text
       fill="#FFFF00"
       font-family="Source Han Sans CN Regular,Source Han Sans CN Regular_MSFontService,sans-serif"
       font-weight="400"
       font-size="43"
       transform="matrix(1 0 0 1 2689.84 949)"
       id="text7">Yolo</text><text
       fill="#FFFF00"
       font-family="Source Han Sans CN Regular,Source Han Sans CN Regular_MSFontService,sans-serif"
       font-weight="400"
       font-size="37"
       transform="matrix(1 0 0 1 2273.18 1263)"
       id="text8">AI Basic</text><text
       fill="#FFFF00"
       font-family="Source Han Sans CN Regular,Source Han Sans CN Regular_MSFontService,sans-serif"
       font-weight="400"
       font-size="37"
       transform="matrix(1 0 0 1 2273.18 1107)"
       id="text9">NLP</text><text
       fill="#FFFF00"
       font-family="Source Han Sans CN Regular,Source Han Sans CN Regular_MSFontService,sans-serif"
       font-weight="400"
       font-size="37"
       transform="matrix(1 0 0 1 2273.18 944)"
       id="text10">CV</text><text
       fill="#FFFF00"
       font-family="Source Han Sans CN Regular,Source Han Sans CN Regular_MSFontService,sans-serif"
       font-weight="400"
       font-size="37"
       transform="matrix(1 0 0 1 2273.18 767)"
       id="text11">Multimodal  </text><text
       fill="#FFFF00"
       font-family="Source Han Sans CN Regular,Source Han Sans CN Regular_MSFontService,sans-serif"
       font-weight="400"
       font-size="37"
       transform="matrix(1 0 0 1 2273.18 811)"
       id="text12">Application</text><rect
       x="2569"
       y="1202"
       width="916"
       height="120"
       fill="#00B050"
       id="rect12" /><text
       fill="#FFFF00"
       font-family="Source Han Sans CN Regular,Source Han Sans CN Regular_MSFontService,sans-serif"
       font-weight="400"
       font-size="43"
       transform="matrix(1 0 0 1 2826.41 1283)"
       id="text13">Collection of ML&amp;DL</text><rect
       x="3509"
       y="1202"
       width="438"
       height="120"
       fill="#00B050"
       id="rect13" /><text
       fill="#FFFF00"
       font-family="Source Han Sans CN Regular,Source Han Sans CN Regular_MSFontService,sans-serif"
       font-weight="400"
       font-size="43"
       transform="matrix(1 0 0 1 3649.98 1283)"
       id="text14">Pytorch</text><rect
       x="2924"
       y="867"
       width="329"
       height="121"
       fill="#00B050"
       id="rect14" /><text
       fill="#FFFF00"
       font-family="Source Han Sans CN Regular,Source Han Sans CN Regular_MSFontService,sans-serif"
       font-weight="400"
       font-size="43"
       transform="matrix(1 0 0 1 3027.36 949)"
       id="text15">MMCV</text><rect
       x="2924"
       y="1033"
       width="329"
       height="121"
       fill="#00B050"
       id="rect15"
       inkscape:label="f0_1_rect15" /><text
       fill="#FFFF00"
       font-family="Source Han Sans CN Regular,Source Han Sans CN Regular_MSFontService,sans-serif"
       font-weight="400"
       font-size="43"
       transform="matrix(1 0 0 1 2993.84 1115)"
       id="text16">NanoGPT</text><rect
       x="3274"
       y="1033"
       width="329"
       height="121"
       fill="#00B050"
       id="rect16" /><text
       fill="#FFFF00"
       font-family="Source Han Sans CN Regular,Source Han Sans CN Regular_MSFontService,sans-serif"
       font-weight="400"
       font-size="43"
       transform="matrix(1 0 0 1 3375.53 1115)"
       id="text17">BERT?</text><rect
       x="3629"
       y="1033"
       width="318"
       height="121"
       fill="#00B050"
       id="rect17" /><text
       fill="#FFFF00"
       font-family="Source Han Sans CN Regular,Source Han Sans CN Regular_MSFontService,sans-serif"
       font-weight="400"
       font-size="43"
       transform="matrix(1 0 0 1 3726.97 1115)"
       id="text18">LoRA</text><text
       fill="#FFFF00"
       font-family="Source Han Sans CN Regular,Source Han Sans CN Regular_MSFontService,sans-serif"
       font-weight="400"
       font-size="43"
       transform="matrix(1 0 0 1 3828.38 1115)"
       id="text19">?</text><rect
       x="3274"
       y="868"
       width="329"
       height="121"
       fill="#00B050"
       id="rect19" /><text
       fill="#FFFF00"
       font-family="Source Han Sans CN Regular,Source Han Sans CN Regular_MSFontService,sans-serif"
       font-weight="400"
       font-size="43"
       transform="matrix(1 0 0 1 3374.96 950)"
       id="text20">DETRs</text><rect
       x="2569"
       y="706"
       width="1378"
       height="121"
       fill="#7F7F7F"
       id="rect20" /><text
       fill="#FFFF00"
       font-family="Source Han Sans CN Regular,Source Han Sans CN Regular_MSFontService,sans-serif"
       font-weight="400"
       font-size="43"
       transform="matrix(1 0 0 1 3216.13 788)"
       id="text21">TBD</text></g></svg>
