<?xml version="1.0" encoding="utf-8"?>
<svg xmlns="http://www.w3.org/2000/svg" xmlns:xlink="http://www.w3.org/1999/xlink" width="960.0" height="540.0" viewBox="0 0 960.0 540.0"><g data-name="Group 42"><g data-name="Rectangle: Rounded Corners 2"><g>
    <path fill="#0070C0" d="M0,13.74 C0,6.14998 6.15,-2.16651e-05 13.74,-2.16651e-05 L946.26,-2.16651e-05 946.26,-2.16651e-05 C953.85,-2.16651e-05 960,6.14998 960,13.74 960,13.74 960,13.74 960,13.74 L960,526.26 960,526.26 C960,533.85 953.85,540 946.26,540 L13.74,540 13.74,540 C6.15,540 0,533.85 0,526.26 z" />
    <g><text font-size="24pt" fill="#FFFFFF" x="352" y="38.4105" class="common-text"><tspan x="352" y="38.4105" textLength="256" font-weight="bold">高中数学学习笔记</tspan></text></g>
  </g>
</g><g data-name="TextBox 23"><g>
    <g><text font-size="13.5pt" fill="#FFFF00" x="37.9051" y="278.45" class="common-text"><tspan x="37.9051" y="256.85" textLength="72" font-weight="bold">函数变换</tspan><tspan x="37.9051" y="278.45" textLength="72" font-weight="bold">导数应用</tspan></text></g>
  </g>
</g><g data-name="Rectangle 24"><g>
    <g>
      <path fill="#00B050" d="M191.722,367.96 L279.532,367.96 279.532,500.47 191.722,500.47 z" />
    </g>
    <g><text font-size="15pt" fill="#FFFF00" x="207.316" y="441.454" class="common-text"><tspan x="207.316" y="441.454">1.综述</tspan></text></g>
  </g>
</g><g data-name="Rectangle 25"><g>
    <g>
      <path fill="#00B050" d="M294.475,463.401 L596.605,463.401 596.605,499.691 294.475,499.691 z" />
    </g>
    <g>
      <path fill="#FFFF00" d="M377.23,490.181 L393.85,490.181 393.85,491.381 377.23,491.381 z" />
      <path fill="#FFFF00" d="M393.85,490.181 L513.85,490.181 513.85,491.381 393.85,491.381 z" /><text font-size="15pt" fill="#FFFF00" x="377.226" y="488.785" class="common-text"><a xlink:href="https://www.baidu.com/"><tspan x="377.226" y="488.785" fill="#FFFF00">2.</tspan></a><a xlink:href="https://www.baidu.com/"><tspan x="393.851" y="488.785" textLength="120" fill="#FFFF00">立体几何基础</tspan></a></text></g>
  </g>
</g><g data-name="Rectangle 26"><g>
    <g>
      <path fill="#00B050" d="M294.475,415.18 L596.605,415.18 596.605,451.47 294.475,451.47 z" />
    </g>
    <g>
      <path fill="#FFFF00" d="M377.23,441.961 L393.85,441.961 393.85,443.161 377.23,443.161 z" />
      <path fill="#FFFF00" d="M393.85,441.961 L513.85,441.961 513.85,443.161 393.85,443.161 z" /><text font-size="15pt" fill="#FFFF00" x="377.226" y="440.564" class="common-text"><a xlink:href="custom:createPyramid"><tspan x="377.226" y="440.564" fill="#FFFF00">3.</tspan></a><a xlink:href="custom:createPyramid"><tspan x="393.851" y="440.564" textLength="120" fill="#FFFF00">板块运动专题</tspan></a></text></g>
  </g>
</g><g data-name="Rectangle 27"><g>
    <g>
      <path fill="#00B050" d="M294.475,367.96 L596.605,367.96 596.605,404.25 294.475,404.25 z" />
    </g>
    <g><text font-size="15pt" fill="#FFFF00" x="387.226" y="393.343" class="common-text"><tspan x="387.226" y="393.343">4.传送带专题</tspan></text></g>
  </g>
</g><g data-name="TextBox 28"><g>
    <g><text font-size="13.5pt" fill="#FFFF00" x="41.4262" y="451.173" class="common-text"><tspan x="41.4262" y="429.573" textLength="72" font-weight="bold">立体几何</tspan><tspan x="41.4262" y="451.173" textLength="72" font-weight="bold">解析几何</tspan></text></g>
  </g>
</g><g data-name="Straight Connector 29"><g>
    <g>
      <path stroke-width="0.75" stroke="#BFBFBF" fill="none" d="M19.2433,350.465 L941.713,350.465" />
    </g>
  </g>
</g><g data-name="Rectangle 30"><g>
    <g>
      <path fill="#00B050" d="M614.884,463.401 L917.024,463.401 917.024,499.691 614.884,499.691 z" />
    </g>
    <g><text font-size="15pt" fill="#FFFF00" x="697.644" y="488.785" class="common-text"><tspan x="697.644" y="488.785">5.弹簧模型专题</tspan></text></g>
  </g>
</g><g data-name="Rectangle 31"><g>
    <g>
      <path fill="#00B050" d="M614.884,415.18 L917.024,415.18 917.024,451.47 614.884,451.47 z" />
    </g>
    <g><text font-size="15pt" fill="#FFFF00" x="697.644" y="440.564" class="common-text"><tspan x="697.644" y="440.564">6.碰撞模型专题</tspan></text></g>
  </g>
</g><g data-name="Rectangle 32"><g>
    <g>
      <path fill="#00B050" d="M614.884,367.96 L917.024,367.96 917.024,404.25 614.884,404.25 z" />
    </g>
    <g><text font-size="15pt" fill="#FFFF00" x="717.644" y="393.343" class="common-text"><tspan x="717.644" y="393.343">7.常用工具</tspan></text></g>
  </g>
</g><g data-name="Rectangle 33"><g>
    <g>
      <path fill="#00B050" d="M191.722,196.243 L279.532,196.243 279.532,328.753 191.722,328.753 z" />
    </g>
    <g><text font-size="15pt" fill="#FFFF00" x="207.316" y="269.74" class="common-text"><tspan x="207.316" y="269.74">1.综述</tspan></text></g>
  </g>
</g><g data-name="Rectangle 34"><g>
    <g>
      <path fill="#00B050" d="M294.475,292.684 L596.605,292.684 596.605,328.974 294.475,328.974 z" />
    </g>
    <g><text font-size="15pt" fill="#FFFF00" x="377.226" y="318.072" class="common-text"><tspan x="377.226" y="318.072">2.抛体运动专题</tspan></text></g>
  </g>
</g><g data-name="Rectangle 35"><g>
    <g>
      <path fill="#00B050" d="M294.475,244.464 L596.605,244.464 596.605,280.754 294.475,280.754 z" />
    </g>
    <g><text font-size="15pt" fill="#FFFF00" x="377.226" y="269.851" class="common-text"><tspan x="377.226" y="269.851">3.板块运动专题</tspan></text></g>
  </g>
</g><g data-name="Rectangle 36"><g>
    <g>
      <path fill="#00B050" d="M294.475,196.243 L596.605,196.243 596.605,232.533 294.475,232.533 z" />
    </g>
    <g><text font-size="15pt" fill="#FFFF00" x="387.226" y="221.63" class="common-text"><tspan x="387.226" y="221.63">4.传送带专题</tspan></text></g>
  </g>
</g><g data-name="Rectangle 37"><g>
    <g>
      <path fill="#00B050" d="M614.884,292.684 L917.024,292.684 917.024,328.974 614.884,328.974 z" />
    </g>
    <g><text font-size="15pt" fill="#FFFF00" x="697.644" y="318.072" class="common-text"><tspan x="697.644" y="318.072">2.抛体运动专题</tspan></text></g>
  </g>
</g><g data-name="Rectangle 38"><g>
    <g>
      <path fill="#00B050" d="M614.884,244.464 L917.024,244.464 917.024,280.754 614.884,280.754 z" />
    </g>
    <g><text font-size="15pt" fill="#FFFF00" x="697.644" y="269.851" class="common-text"><tspan x="697.644" y="269.851">3.板块运动专题</tspan></text></g>
  </g>
</g><g data-name="Rectangle 39"><g>
    <g>
      <path fill="#00B050" d="M614.884,196.243 L917.024,196.243 917.024,232.533 614.884,232.533 z" />
    </g>
    <g><text font-size="15pt" fill="#FFFF00" x="707.644" y="221.63" class="common-text"><tspan x="707.644" y="221.63">4.传送带专题</tspan></text></g>
  </g>
</g><g data-name="Straight Connector 40"><g>
    <g>
      <path stroke-width="0.75" stroke="#BFBFBF" fill="none" d="M14.4011,175.644 L936.871,175.644" />
    </g>
  </g>
</g><g data-name="TextBox 41"><g>
    <g><text font-size="13.5pt" fill="#FFFF00" x="41.4262" y="133.312" class="common-text"><tspan x="41.4262" y="133.312" textLength="36" font-weight="bold">其他</tspan></text></g>
  </g>
</g></g><defs><style type="text/css">.common-text {
  font-family: 微软雅黑, Microsoft YaHei;
  font-style: normal;
  font-weight: normal;
  font-stretch: normal;
}</style></defs></svg>